<svg width="217" height="48" viewBox="0 0 217 48" fill="none" xmlns="http://www.w3.org/2000/svg">
<path d="M17.2029 13.448H22.8669V29.816L38.2269 13.448H45.4269L31.9389 28.136L45.6189 47H38.8989L27.7629 32.312L22.8669 37.592V47H17.2029V13.448ZM50.9998 13.448H56.6638V47H50.9998V13.448ZM89.8569 21.368C87.5849 19 84.7849 17.816 81.4569 17.816C78.1289 17.816 75.3129 19 73.0089 21.368C70.7369 23.736 69.6009 26.616 69.6009 30.008C69.6009 33.368 70.7369 36.232 73.0089 38.6C75.3129 40.968 78.1289 42.152 81.4569 42.152C84.7849 42.152 87.5849 40.968 89.8569 38.6C92.1609 36.232 93.3129 33.368 93.3129 30.008C93.3129 26.616 92.1609 23.736 89.8569 21.368ZM94.0329 42.392C90.6409 45.688 86.4489 47.336 81.4569 47.336C76.4649 47.336 72.2729 45.688 68.8809 42.392C65.4889 39.064 63.7929 34.936 63.7929 30.008C63.7929 25.048 65.4889 20.92 68.8809 17.624C72.2729 14.296 76.4649 12.632 81.4569 12.632C86.4489 12.632 90.6409 14.296 94.0329 17.624C97.4249 20.92 99.1209 25.048 99.1209 30.008C99.1209 34.936 97.4249 39.064 94.0329 42.392ZM116.393 17.864C114.761 17.864 113.417 18.2 112.361 18.872C111.305 19.544 110.777 20.568 110.777 21.944C110.777 23.288 111.305 24.328 112.361 25.064C113.417 25.768 115.657 26.536 119.081 27.368C122.537 28.2 125.129 29.368 126.857 30.872C128.617 32.376 129.497 34.6 129.497 37.544C129.497 40.456 128.393 42.824 126.185 44.648C123.977 46.472 121.081 47.384 117.497 47.384C112.249 47.384 107.593 45.576 103.529 41.96L107.081 37.688C110.473 40.632 113.993 42.104 117.641 42.104C119.465 42.104 120.905 41.72 121.961 40.952C123.049 40.152 123.593 39.112 123.593 37.832C123.593 36.52 123.081 35.512 122.057 34.808C121.065 34.072 119.337 33.416 116.873 32.84C114.409 32.232 112.537 31.688 111.257 31.208C109.977 30.696 108.841 30.04 107.849 29.24C105.865 27.736 104.873 25.432 104.873 22.328C104.873 19.224 105.993 16.84 108.233 15.176C110.505 13.48 113.305 12.632 116.633 12.632C118.777 12.632 120.905 12.984 123.017 13.688C125.129 14.392 126.953 15.384 128.489 16.664L125.465 20.936C124.473 20.04 123.129 19.304 121.433 18.728C119.737 18.152 118.057 17.864 116.393 17.864ZM136.5 13.448H142.164V29.816L157.524 13.448H164.724L151.236 28.136L164.916 47H158.196L147.06 32.312L142.164 37.592V47H136.5V13.448ZM192.701 21.368C190.429 19 187.629 17.816 184.301 17.816C180.973 17.816 178.157 19 175.853 21.368C173.581 23.736 172.445 26.616 172.445 30.008C172.445 33.368 173.581 36.232 175.853 38.6C178.157 40.968 180.973 42.152 184.301 42.152C187.629 42.152 190.429 40.968 192.701 38.6C195.005 36.232 196.157 33.368 196.157 30.008C196.157 26.616 195.005 23.736 192.701 21.368ZM196.877 42.392C193.485 45.688 189.293 47.336 184.301 47.336C179.309 47.336 175.117 45.688 171.725 42.392C168.333 39.064 166.637 34.936 166.637 30.008C166.637 25.048 168.333 20.92 171.725 17.624C175.117 14.296 179.309 12.632 184.301 12.632C189.293 12.632 193.485 14.296 196.877 17.624C200.269 20.92 201.965 25.048 201.965 30.008C201.965 34.936 200.269 39.064 196.877 42.392Z" fill="#3A5985"/>
<path d="M19.2029 13.448H24.8669V29.816L40.2269 13.448H47.4269L33.9389 28.136L47.6189 47H40.8989L29.7629 32.312L24.8669 37.592V47H19.2029V13.448ZM52.9998 13.448H58.6638V47H52.9998V13.448ZM91.8569 21.368C89.5849 19 86.7849 17.816 83.4569 17.816C80.1289 17.816 77.3129 19 75.0089 21.368C72.7369 23.736 71.6009 26.616 71.6009 30.008C71.6009 33.368 72.7369 36.232 75.0089 38.6C77.3129 40.968 80.1289 42.152 83.4569 42.152C86.7849 42.152 89.5849 40.968 91.8569 38.6C94.1609 36.232 95.3129 33.368 95.3129 30.008C95.3129 26.616 94.1609 23.736 91.8569 21.368ZM96.0329 42.392C92.6409 45.688 88.4489 47.336 83.4569 47.336C78.4649 47.336 74.2729 45.688 70.8809 42.392C67.4889 39.064 65.7929 34.936 65.7929 30.008C65.7929 25.048 67.4889 20.92 70.8809 17.624C74.2729 14.296 78.4649 12.632 83.4569 12.632C88.4489 12.632 92.6409 14.296 96.0329 17.624C99.4249 20.92 101.121 25.048 101.121 30.008C101.121 34.936 99.4249 39.064 96.0329 42.392ZM118.393 17.864C116.761 17.864 115.417 18.2 114.361 18.872C113.305 19.544 112.777 20.568 112.777 21.944C112.777 23.288 113.305 24.328 114.361 25.064C115.417 25.768 117.657 26.536 121.081 27.368C124.537 28.2 127.129 29.368 128.857 30.872C130.617 32.376 131.497 34.6 131.497 37.544C131.497 40.456 130.393 42.824 128.185 44.648C125.977 46.472 123.081 47.384 119.497 47.384C114.249 47.384 109.593 45.576 105.529 41.96L109.081 37.688C112.473 40.632 115.993 42.104 119.641 42.104C121.465 42.104 122.905 41.72 123.961 40.952C125.049 40.152 125.593 39.112 125.593 37.832C125.593 36.52 125.081 35.512 124.057 34.808C123.065 34.072 121.337 33.416 118.873 32.84C116.409 32.232 114.537 31.688 113.257 31.208C111.977 30.696 110.841 30.04 109.849 29.24C107.865 27.736 106.873 25.432 106.873 22.328C106.873 19.224 107.993 16.84 110.233 15.176C112.505 13.48 115.305 12.632 118.633 12.632C120.777 12.632 122.905 12.984 125.017 13.688C127.129 14.392 128.953 15.384 130.489 16.664L127.465 20.936C126.473 20.04 125.129 19.304 123.433 18.728C121.737 18.152 120.057 17.864 118.393 17.864ZM138.5 13.448H144.164V29.816L159.524 13.448H166.724L153.236 28.136L166.916 47H160.196L149.06 32.312L144.164 37.592V47H138.5V13.448ZM194.701 21.368C192.429 19 189.629 17.816 186.301 17.816C182.973 17.816 180.157 19 177.853 21.368C175.581 23.736 174.445 26.616 174.445 30.008C174.445 33.368 175.581 36.232 177.853 38.6C180.157 40.968 182.973 42.152 186.301 42.152C189.629 42.152 192.429 40.968 194.701 38.6C197.005 36.232 198.157 33.368 198.157 30.008C198.157 26.616 197.005 23.736 194.701 21.368ZM198.877 42.392C195.485 45.688 191.293 47.336 186.301 47.336C181.309 47.336 177.117 45.688 173.725 42.392C170.333 39.064 168.637 34.936 168.637 30.008C168.637 25.048 170.333 20.92 173.725 17.624C177.117 14.296 181.309 12.632 186.301 12.632C191.293 12.632 195.485 14.296 198.877 17.624C202.269 20.92 203.965 25.048 203.965 30.008C203.965 34.936 202.269 39.064 198.877 42.392Z" fill="#89AFE0"/>
</svg>
